# xmcd
# Track frame offsets:
# 150
# 19685
# 29830
# 44572
# 58055
# 74637
# 95037
# 106642
# 119152
# 136275
# 151655
# 174530
#
# Disc length: 2507 seconds
# Revision: 1
# Processed by: cddbd v1.5.2PL0 Copyright (c) Steve Scherf et al.
# Submitted via: VisiTrax 2.10.0.248 - For more info visit www.synapsa.com
#
DISCID=ad09c90c
DTITLE=Umberto Bindi - I Grandi Successi Originali cd2
DYEAR=2000
DGENRE=pop
TTITLE0=Noi due
TTITLE1=Basta una volta
TTITLE2=Amare te
TTITLE3=Odio
TTITLE4=Un giorno, un mese, un anno
TTITLE5=Marie Claire
TTITLE6=Tù
TTITLE7=Un ricordo d'amore
TTITLE8=Appuntamento a Madrid
TTITLE9=Luna nuova sul fuji-jama
TTITLE10=Jane
TTITLE11=Girotondo per i grandi
EXTD=
EXTT0=
EXTT1=
EXTT2=
EXTT3=
EXTT4=
EXTT5=
EXTT6=
EXTT7=
EXTT8=
EXTT9=
EXTT10=
EXTT11=
PLAYORDER=
